<svg width="8" height="9" viewBox="0 0 8 9" fill="none" xmlns="http://www.w3.org/2000/svg">
<mask id="path-1-inside-1_9_4257" fill="white">
<path d="M0.849991 8.26915L0.230774 7.64993L3.38077 4.49993L0.230774 1.34993L0.849991 0.730713L3.99999 3.88071L7.14999 0.730713L7.76921 1.34993L4.61921 4.49993L7.76921 7.64993L7.14999 8.26915L3.99999 5.11915L0.849991 8.26915Z"/>
</mask>
<path d="M0.849991 8.26915L0.230774 7.64993L3.38077 4.49993L0.230774 1.34993L0.849991 0.730713L3.99999 3.88071L7.14999 0.730713L7.76921 1.34993L4.61921 4.49993L7.76921 7.64993L7.14999 8.26915L3.99999 5.11915L0.849991 8.26915Z" fill="white"/>
<path d="M0.849991 8.26915L0.142884 8.97625L0.84999 9.68336L1.5571 8.97625L0.849991 8.26915ZM0.230774 7.64993L-0.476333 6.94282L-1.18344 7.64993L-0.476333 8.35704L0.230774 7.64993ZM3.38077 4.49993L4.08788 5.20704L4.79499 4.49993L4.08788 3.79282L3.38077 4.49993ZM0.230774 1.34993L-0.476333 0.642823L-1.18344 1.34993L-0.476333 2.05704L0.230774 1.34993ZM0.849991 0.730713L1.5571 0.0236061L0.84999 -0.683501L0.142884 0.0236062L0.849991 0.730713ZM3.99999 3.88071L3.29288 4.58782L3.99999 5.29493L4.7071 4.58782L3.99999 3.88071ZM7.14999 0.730713L7.8571 0.0236061L7.14999 -0.683501L6.44288 0.0236061L7.14999 0.730713ZM7.76921 1.34993L8.47631 2.05704L9.18342 1.34993L8.47631 0.642823L7.76921 1.34993ZM4.61921 4.49993L3.9121 3.79282L3.20499 4.49993L3.9121 5.20704L4.61921 4.49993ZM7.76921 7.64993L8.47631 8.35704L9.18342 7.64993L8.47631 6.94282L7.76921 7.64993ZM7.14999 8.26915L6.44288 8.97625L7.14999 9.68336L7.8571 8.97625L7.14999 8.26915ZM3.99999 5.11915L4.7071 4.41204L3.99999 3.70493L3.29288 4.41204L3.99999 5.11915ZM1.5571 7.56204L0.937881 6.94282L-0.476333 8.35704L0.142884 8.97625L1.5571 7.56204ZM0.937881 8.35704L4.08788 5.20704L2.67367 3.79282L-0.476333 6.94282L0.937881 8.35704ZM4.08788 3.79282L0.937881 0.642823L-0.476333 2.05704L2.67367 5.20704L4.08788 3.79282ZM0.937881 2.05704L1.5571 1.43782L0.142884 0.0236062L-0.476333 0.642823L0.937881 2.05704ZM0.142884 1.43782L3.29288 4.58782L4.7071 3.17361L1.5571 0.0236061L0.142884 1.43782ZM4.7071 4.58782L7.8571 1.43782L6.44288 0.0236061L3.29288 3.17361L4.7071 4.58782ZM6.44288 1.43782L7.0621 2.05704L8.47631 0.642823L7.8571 0.0236061L6.44288 1.43782ZM7.0621 0.642823L3.9121 3.79282L5.32631 5.20704L8.47631 2.05704L7.0621 0.642823ZM3.9121 5.20704L7.0621 8.35704L8.47631 6.94282L5.32631 3.79282L3.9121 5.20704ZM7.0621 6.94282L6.44288 7.56204L7.8571 8.97625L8.47631 8.35704L7.0621 6.94282ZM7.8571 7.56204L4.7071 4.41204L3.29288 5.82625L6.44288 8.97625L7.8571 7.56204ZM3.29288 4.41204L0.142884 7.56204L1.5571 8.97625L4.7071 5.82625L3.29288 4.41204Z" fill="white" mask="url(#path-1-inside-1_9_4257)"/>
</svg>
