<svg width="10" height="12" viewBox="0 0 10 12" fill="none" xmlns="http://www.w3.org/2000/svg">
<path d="M2.40513 11.2664C2.10931 11.2664 1.85673 11.1617 1.64737 10.9524C1.43801 10.743 1.33333 10.4904 1.33333 10.1946V2.39978H0.533325V1.53312H3.39998V0.810059H6.59998V1.53312H9.46663V2.39978H8.66663V10.1874C8.66663 10.4956 8.56301 10.7525 8.35579 10.9581C8.14857 11.1636 7.89491 11.2664 7.59483 11.2664H2.40513ZM7.79998 2.39978H2.19998V10.1946C2.19998 10.2545 2.21921 10.3036 2.25768 10.3421C2.29614 10.3805 2.34529 10.3998 2.40513 10.3998H7.59483C7.64611 10.3998 7.69313 10.3784 7.73588 10.3357C7.77861 10.2929 7.79998 10.2459 7.79998 10.1946V2.39978ZM3.66923 9.19977H4.53588V3.59978H3.66923V9.19977ZM5.46408 9.19977H6.33072V3.59978H5.46408V9.19977Z" fill="#E33D3E"/>
</svg>
