<svg width="12" height="3" viewBox="0 0 12 3" fill="none" xmlns="http://www.w3.org/2000/svg">
<path d="M1.68788 2.58313C1.38876 2.58313 1.13416 2.47662 0.924092 2.26361C0.714036 2.05059 0.609009 1.79453 0.609009 1.4954C0.609009 1.19628 0.715516 0.941678 0.92853 0.731608C1.14154 0.521539 1.39761 0.416504 1.69674 0.416504C1.99586 0.416504 2.25045 0.523012 2.46051 0.736026C2.67058 0.949039 2.77561 1.20511 2.77561 1.50423C2.77561 1.80336 2.66911 2.05796 2.45609 2.26803C2.24308 2.47809 1.98701 2.58313 1.68788 2.58313ZM5.99557 2.58313C5.69645 2.58313 5.44185 2.47662 5.23178 2.26361C5.02171 2.05059 4.91668 1.79453 4.91668 1.4954C4.91668 1.19628 5.02318 0.941678 5.2362 0.731608C5.44921 0.521539 5.70528 0.416504 6.00441 0.416504C6.30353 0.416504 6.55813 0.523012 6.7682 0.736026C6.97827 0.949039 7.0833 1.20511 7.0833 1.50423C7.0833 1.80336 6.97679 2.05796 6.76378 2.26803C6.55077 2.47809 6.2947 2.58313 5.99557 2.58313ZM10.3032 2.58313C10.0041 2.58313 9.74952 2.47662 9.53947 2.26361C9.3294 2.05059 9.22436 1.79453 9.22436 1.4954C9.22436 1.19628 9.33087 0.941678 9.54388 0.731608C9.7569 0.521539 10.013 0.416504 10.3121 0.416504C10.6112 0.416504 10.8658 0.523012 11.0759 0.736026C11.2859 0.949039 11.391 1.20511 11.391 1.50423C11.391 1.80336 11.2845 2.05796 11.0714 2.26803C10.8584 2.47809 10.6024 2.58313 10.3032 2.58313Z" fill="#999999"/>
</svg>
